<svg xmlns="http://www.w3.org/2000/svg" width="427" height="372" viewBox="0 0 427 372">
  <g id="Group_1" data-name="Group 1" transform="translate(-602.5 -267)">
    <path id="Polygon_3" data-name="Polygon 3" d="M314.459,0a10,10,0,0,1,8.673,5.022l101.011,176a10,10,0,0,1,0,9.955l-101.011,176A10,10,0,0,1,314.459,372H112.541a10,10,0,0,1-8.673-5.022l-101.011-176a10,10,0,0,1,0-9.955l101.011-176A10,10,0,0,1,112.541,0Z" transform="translate(602.5 267)" fill="#f0f0f0"/>
    <path id="Polygon_1" data-name="Polygon 1" d="M291.975,0a10,10,0,0,1,8.661,5l93.48,162a10,10,0,0,1,0,10l-93.48,162a10,10,0,0,1-8.661,5H105.025a10,10,0,0,1-8.661-5L2.884,177a10,10,0,0,1,0-10L96.364,5a10,10,0,0,1,8.661-5Z" transform="translate(617.5 281)" fill="#ddba8b"/>
  </g>
</svg>
