<?xml version="1.0" standalone="no"?>
<!DOCTYPE svg PUBLIC "-//W3C//DTD SVG 20010904//EN"
 "http://www.w3.org/TR/2001/REC-SVG-20010904/DTD/svg10.dtd">
<svg version="1.0" xmlns="http://www.w3.org/2000/svg"
 width="512.000000pt" height="512.000000pt" viewBox="0 0 512.000000 512.000000"
 preserveAspectRatio="xMidYMid meet">
<metadata>
Created by potrace 1.14, written by Peter Selinger 2001-2017
</metadata>
<g transform="translate(0.000000,512.000000) scale(0.100000,-0.100000)"
fill="#000000" stroke="none">
<path d="M2742 5092 c-23 -9 -62 -34 -86 -54 -39 -33 -70 -90 -297 -547 l-254
-510 -660 -3 -660 -3 -53 -29 c-29 -17 -67 -45 -83 -64 -16 -18 -166 -304
-332 -635 l-302 -602 0 -85 0 -85 302 -602 c166 -331 316 -617 332 -635 16
-19 54 -47 83 -64 l53 -29 660 -3 660 -3 249 -502 c223 -449 254 -507 298
-549 86 -83 41 -79 919 -76 771 3 774 3 814 25 88 47 100 67 417 701 l303 606
0 83 0 82 -262 526 -263 525 263 525 262 526 0 82 0 83 -303 606 c-317 634
-329 654 -417 701 -40 22 -43 22 -820 24 -715 2 -784 1 -823 -15z m1559 -975
l212 -422 -214 -425 -214 -425 -532 -3 -533 -2 -214 427 -213 428 211 422 211
423 537 0 538 0 211 -423z m-1990 -1127 c115 -228 208 -422 208 -430 0 -8 -93
-202 -208 -430 l-207 -415 -535 -3 -535 -2 -213 425 -213 425 213 425 213 425
535 -2 535 -3 207 -415z m1988 -1140 l214 -425 -212 -422 -211 -423 -538 0
-537 0 -211 423 -211 422 213 428 214 427 533 -2 532 -3 214 -425z"/>
</g>
</svg>
